<?xml version="1.0" encoding="UTF-8" standalone="no"?>
<svg
   xmlns:dc="http://purl.org/dc/elements/1.1/"
   xmlns:cc="http://creativecommons.org/ns#"
   xmlns:rdf="http://www.w3.org/1999/02/22-rdf-syntax-ns#"
   xmlns:svg="http://www.w3.org/2000/svg"
   xmlns="http://www.w3.org/2000/svg"
   xmlns:sodipodi="http://sodipodi.sourceforge.net/DTD/sodipodi-0.dtd"
   xmlns:inkscape="http://www.inkscape.org/namespaces/inkscape"
   version="1.1"
   id="svg132"
   width="546.5282"
   height="169.90503"
   viewBox="0 0 546.5282 169.90503"
   sodipodi:docname="sigo.svg"
   inkscape:version="1.0.1 (3bc2e813f5, 2020-09-07)">
  <metadata
     id="metadata138">
    <rdf:RDF>
      <cc:Work
         rdf:about="">
        <dc:format>image/svg+xml</dc:format>
        <dc:type
           rdf:resource="http://purl.org/dc/dcmitype/StillImage" />
        <dc:title />
      </cc:Work>
    </rdf:RDF>
  </metadata>
  <defs
     id="defs136" />
  <sodipodi:namedview
     pagecolor="#ffffff"
     bordercolor="#666666"
     borderopacity="1"
     objecttolerance="10"
     gridtolerance="10"
     guidetolerance="10"
     inkscape:pageopacity="0"
     inkscape:pageshadow="2"
     inkscape:window-width="1920"
     inkscape:window-height="1001"
     id="namedview134"
     showgrid="false"
     inkscape:zoom="1.3833333"
     inkscape:cx="298.82166"
     inkscape:cy="31.390328"
     inkscape:window-x="-9"
     inkscape:window-y="-9"
     inkscape:window-maximized="1"
     inkscape:current-layer="g140"
     fit-margin-top="2"
     fit-margin-left="4"
     fit-margin-right="4"
     fit-margin-bottom="2"
     inkscape:document-rotation="0" />
  <g
     inkscape:groupmode="layer"
     inkscape:label="Image"
     id="g140"
     transform="translate(-151.33133,-575.36145)">
    <g
       id="g134"
       style="fill:#6699ff">
      <path
         style="fill:#6699ff"
         d="m 467.58133,713.28137 c -1.62814,-0.9483 -1.75,-4.35592 -1.75,-48.93441 0,-46.34882 0.0632,-47.94896 1.93426,-48.95031 1.06384,-0.56935 3.79342,-1.03518 6.06574,-1.03518 2.27232,0 5.0019,0.46583 6.06574,1.03518 1.87104,1.00136 1.93426,2.60165 1.93426,48.96482 0,46.36317 -0.0632,47.96346 -1.93426,48.96482 -2.46076,1.31696 -10.02491,1.28937 -12.31574,-0.0449 z"
         id="path125" />
      <path
         id="path121"
         style="fill:#6699ff"
         d="m 639.98745,715.25716 c -17.91035,-2.24469 -32.91696,-16.1535 -37.77182,-35.00863 -1.9923,-7.73764 -2.19995,-22.37741 -0.42392,-29.8871 1.65451,-6.99583 6.17916,-16.24394 10.56753,-21.59937 13.75944,-16.79158 42.87405,-20.85241 60.8469,-8.48676 9.64704,6.63734 16.9545,17.88038 19.55458,30.08613 1.63226,7.6624 1.41314,22.36316 -0.4385,29.41855 -6.31784,24.07326 -27.69582,38.56515 -52.33477,35.47718 z m 16.22786,-13.10663 c 6.10816,-1.79698 14.70809,-10.74652 17.50175,-18.21324 4.80359,-12.83874 4.55664,-29.26806 -0.61427,-40.86734 -3.06616,-6.87794 -11.5089,-15.12486 -17.06324,-16.66748 -5.32324,-1.47843 -14.7043,-1.27843 -18.71917,0.39909 -5.57558,2.32962 -12.95101,9.96956 -15.84082,16.40891 -5.83102,12.99326 -5.67117,30.4163 0.393,42.83578 3.37449,6.91098 11.27007,14.76213 16.31604,16.2242 4.58789,1.32934 13.29741,1.2714 18.02671,-0.11992 z" />
      <path
         style="fill:#6699ff"
         d="m 548.33133,715.35336 c -20.24768,-2.21387 -35.64212,-14.32225 -42.20607,-33.19688 -3.24495,-9.33085 -3.38219,-24.16752 -0.31483,-34.03516 4.21512,-13.55996 15.70203,-26.01755 28.83998,-31.27703 11.68382,-4.67736 27.62941,-5.01037 40.91896,-0.85456 7.27026,2.2735 7.85275,3.24773 5.33921,8.93 -1.79928,4.06758 -2.36273,4.58807 -4.32309,3.99346 -10.54857,-3.19951 -13.86073,-3.70473 -22.22552,-3.39018 -10.60794,0.3989 -16.5435,2.80069 -23.08335,9.34054 -14.65129,14.65129 -14.65129,44.34455 0,58.99584 6.68105,6.68106 12.42324,8.9445 23.70139,9.34256 14.45817,0.5103 13.85332,1.28542 13.85332,-17.75322 0,-12.4425 0.3038,-16.0945 1.41563,-17.01724 0.83493,-0.69293 3.8089,-1.05081 7.25,-0.87244 l 5.83437,0.30242 0.26989,20.6183 0.26989,20.6183 -4.93997,2.12512 c -8.56497,3.68455 -20.25038,5.26177 -30.59981,4.13017 z"
         id="path119" />
      <path
         style="fill:#6699ff"
         d="m 401.02419,715.26756 c -7.71687,-0.97565 -16.00982,-3.31824 -18.69041,-5.27967 -1.89268,-1.3849 -1.91841,-1.68911 -0.48996,-5.79404 1.73704,-4.99175 2.66085,-5.17552 12.44761,-2.47625 6.77191,1.86775 18.03858,2.1619 22.2248,0.58023 4.01245,-1.51601 8.08444,-5.70744 9.39105,-9.6665 2.79236,-8.46096 -2.11903,-14.98859 -17.52701,-23.2948 -20.75016,-11.1861 -26.84306,-18.19581 -26.84306,-30.88218 0,-10.61079 5.43096,-18.6215 15.69982,-23.15735 3.90269,-1.72385 6.7716,-2.15673 14.03176,-2.11721 9.71134,0.0529 22.41353,2.62978 23.21138,4.70894 0.26187,0.68242 -0.35034,2.98045 -1.36047,5.10674 -1.58172,3.32947 -2.24958,3.83394 -4.81248,3.63507 -20.14417,-1.56306 -21.79261,-1.55333 -24.95038,0.14724 -4.14938,2.23459 -6.52551,6.41664 -6.52551,11.48508 0,5.80251 4.85618,10.78152 17.38362,17.82331 21.76224,12.23276 27.84956,19.25563 27.96871,32.26716 0.17172,18.75349 -16.98285,29.97088 -41.15947,26.91423 z"
         id="path117" />
    </g>
    <path
       id="path163"
       style="fill:#3366cc"
       d="m 215.93987,732.26607 c -10.66531,-5.99754 -19.9168,-10.90462 -20.55887,-10.90462 -0.64208,0 -2.04092,0.66069 -3.10854,1.4682 -3.49186,2.64111 -6.7408,1.63237 -21.94113,-6.8123 l -15,-8.33337 v -18.86534 -18.86535 l 6.75,-3.87762 6.75,-3.87763 v -15.72716 c 0,-11.0754 0.36972,-16.19284 1.25,-17.30155 0.6875,-0.8659 8.45,-5.53802 17.25,-10.38248 8.8,-4.84445 16.33061,-9.28449 16.73469,-9.86675 0.40408,-0.58226 0.74158,-3.80141 0.75,-7.15366 0.0114,-4.5422 0.46115,-6.48438 1.76531,-7.62332 2.98996,-2.61118 29.37564,-16.78167 31.24773,-16.78167 0.97528,0 7.11227,2.99147 13.63775,6.64772 6.52549,3.65624 13.29625,7.24943 15.04614,7.98485 4.29193,1.80375 4.78597,2.88287 4.51751,9.86743 -0.12684,3.3 0.11396,6.47904 0.53512,7.06454 0.42116,0.58549 8.30369,5.23388 17.51672,10.32976 12.21357,6.75553 16.88821,9.85309 17.25762,11.43547 0.27866,1.19363 0.61572,8.86926 0.74903,17.05696 l 0.24238,14.88673 6.99164,3.7235 6.99163,3.7235 -0.31464,18.38977 c -0.27011,15.78688 -0.552,18.57314 -1.99163,19.68533 -4.41767,3.41285 -29.13825,16.20065 -31.26394,16.17264 -1.32718,-0.0175 -3.28657,-0.6925 -4.35419,-1.5 -1.06762,-0.80751 -2.46851,-1.4682 -3.11308,-1.4682 -0.64458,0 -10.07018,4.95 -20.94579,11 -10.87561,6.05 -20.72472,10.95708 -21.88692,10.90462 -1.16219,-0.0525 -10.83924,-5.00246 -21.50454,-11 z m 38.26199,-6.60252 c 8.61531,-4.78384 15.51627,-9.14171 15.33545,-9.68415 -0.18081,-0.54244 -3.00113,-2.45085 -6.26736,-4.2409 -3.26624,-1.79006 -6.49449,-4.29469 -7.17388,-5.56585 -0.82709,-1.54751 -1.24013,-7.47887 -1.25,-17.95042 -0.0127,-13.46279 0.2288,-15.9237 1.73526,-17.68351 0.9625,-1.12436 8.38741,-5.7144 16.4998,-10.20008 l 14.7498,-8.15579 4.47281,2.16524 c 2.46004,1.19089 4.93513,1.87952 5.5002,1.53029 1.23838,-0.76536 1.37009,-19.42799 0.15068,-21.35168 -1.13021,-1.78299 -25.35383,-15.1408 -26.34551,-14.52791 -0.42778,0.26438 -0.77778,2.61813 -0.77778,5.23055 0,2.61242 -0.5625,5.45537 -1.25,6.31767 -1.43501,1.79987 -29.97717,17.81444 -31.75,17.81444 -1.77283,0 -30.31499,-16.01457 -31.75,-17.81444 -0.6875,-0.8623 -1.25,-3.70525 -1.25,-6.31767 0,-2.61242 -0.35,-4.96617 -0.77778,-5.23055 -0.99168,-0.61289 -25.2153,12.74492 -26.34551,14.52791 -1.4114,2.22657 -1.0784,20.82012 0.38292,21.38088 0.69279,0.26585 2.98478,-0.39617 5.09331,-1.47115 4.63289,-2.36198 4.35065,-2.45332 21.27513,6.88531 7.07956,3.90638 13.54693,7.47436 14.37193,7.92884 1.22127,0.67278 1.55084,3.89511 1.7736,17.34142 0.15048,9.0833 -0.15353,17.63854 -0.67558,19.01163 -0.59321,1.56027 -3.29651,3.78461 -7.20825,5.93112 -3.44248,1.88902 -6.40923,3.88508 -6.59276,4.43568 -0.31806,0.95416 29.00348,18.08711 31.30615,18.29258 0.60674,0.0541 8.15206,-3.81561 16.76737,-8.59946 z m -71.37053,-24.21331 v -10.91121 l -9.24944,-4.99365 c -5.08719,-2.7465 -9.58719,-4.7849 -10,-4.52977 -0.41281,0.25513 -0.75056,5.13333 -0.75056,10.84044 v 10.37657 l 8.75,5.00845 c 4.8125,2.75465 9.3125,5.03363 10,5.06441 0.92705,0.0415 1.25,-2.76309 1.25,-10.85524 z m 20,6.00971 8.5,-4.84394 0.28679,-10.29049 c 0.15773,-5.65978 -0.0673,-10.62815 -0.5,-11.04083 -0.43274,-0.41268 -4.94929,1.54171 -10.03679,4.34309 l -9.25,5.09342 v 10.82012 c 0,8.00479 0.32524,10.81264 1.25,10.79135 0.6875,-0.0158 5.075,-2.20855 9.75,-4.87272 z m 81,-5.91863 V 690.7212 l -9.25,-5.09342 c -5.0875,-2.80138 -9.60405,-4.75577 -10.03679,-4.34309 -0.43273,0.41268 -0.65773,5.38105 -0.5,11.04083 l 0.28679,10.29049 8.5,4.84394 c 4.675,2.66417 9.0625,4.85689 9.75,4.87272 0.92476,0.0213 1.25,-2.78656 1.25,-10.79135 z m 20.01735,5.75643 8.98265,-5.0637 v -10.37728 c 0,-5.70751 -0.33775,-10.58603 -0.75056,-10.84116 -0.41281,-0.25513 -4.91281,1.78327 -10,4.52977 l -9.24944,4.99365 v 10.91121 c 0,6.7315 0.38971,10.91121 1.01735,10.91121 0.55954,0 5.05954,-2.27867 10,-5.0637 z m -106.91696,-28.6863 c 4.88395,-2.6125 8.88434,-5.22763 8.88976,-5.81139 0.0118,-1.27187 -16.15387,-10.43861 -18.40862,-10.43861 -2.19124,0 -18.57913,9.27184 -18.55865,10.5 0.0156,0.93403 16.45013,10.2838 18.33737,10.43231 0.47313,0.0372 4.8562,-2.06981 9.74014,-4.68231 z m 100.63505,0.0361 c 5.0795,-2.63235 9.2406,-5.23609 9.2469,-5.78609 0.0141,-1.22968 -16.37573,-10.5 -18.56387,-10.5 -2.25571,0 -18.42074,9.16719 -18.407,10.43861 0.009,0.85253 16.13736,10.32815 17.98853,10.56863 0.275,0.0357 4.65595,-2.08879 9.73544,-4.72115 z m -63.94865,-53.22197 -0.28679,-10.2623 -8.9373,-4.93603 c -4.91551,-2.71482 -9.54385,-4.70328 -10.28518,-4.4188 -1.03595,0.39753 -1.28188,2.89118 -1.0627,10.77527 l 0.28518,10.25803 9.4877,5.22215 c 5.21823,2.87219 9.84728,4.86257 10.28678,4.42307 0.4395,-0.4395 0.67004,-5.41713 0.51231,-11.06139 z m 27.96321,1.66979 c 1.80243,-1.41139 1.74592,-20.60639 -0.0627,-21.30042 -0.72199,-0.27705 -5.33449,1.7174 -10.25,4.43212 l -8.9373,4.93584 -0.28837,9.77809 c -0.1586,5.37795 -0.0462,10.40913 0.24975,11.18039 0.41207,1.07385 2.58764,0.29565 9.28836,-3.32245 4.81265,-2.59862 9.31276,-5.16523 10.00026,-5.70357 z m -13.61465,-24.47063 c 4.87556,-2.6052 8.86465,-5.04211 8.86465,-5.41536 0,-0.71404 -17.74937,-10.84793 -19,-10.84793 -1.24443,0 -19,10.13207 -19,10.8422 0,0.90938 17.13941,10.10817 18.88535,10.13584 0.76194,0.0121 5.37444,-2.10956 10.25,-4.71475 z" />
  </g>
</svg>
